HIERARCHY
ROOT Hips
{
	OFFSET 0.000000 0.000000 0.000000
	CHANNELS 6 Xposition Yposition Zposition Zrotation Yrotation Xrotation 
	JOINT LeftUpLeg_virtual
	{
		OFFSET 0.000000 0.000000 0.000000
		CHANNELS 3 Zrotation Yrotation Xrotation
		JOINT LeftUpLeg
		{
			OFFSET 8.479694 -4.795517 -0.379053
			CHANNELS 3 Zrotation Yrotation Xrotation
			JOINT LeftLeg
			{
				OFFSET 0.485052 -32.551468 0.112863
				CHANNELS 3 Zrotation Yrotation Xrotation
				JOINT LeftFoot
				{
					OFFSET 0.438033 -32.635670 -3.012641
					CHANNELS 3 Zrotation Yrotation Xrotation
					JOINT LeftToeBase
					{
						OFFSET 0.970169 -13.225353 11.864223
						CHANNELS 3 Zrotation Yrotation Xrotation
						End Site
						{
							OFFSET 0.000000 0.000000 0.000000
						}
					}
				}
			}
		}
	}
	JOINT RightUpLeg_virtual
	{
		OFFSET 0.000000 0.000000 0.000000
		CHANNELS 3 Zrotation Yrotation Xrotation
		JOINT RightUpLeg
		{
			OFFSET -8.479694 -4.795517 -0.379053
			CHANNELS 3 Zrotation Yrotation Xrotation
			JOINT RightLeg
			{
				OFFSET -0.484100 -32.551483 0.112903
				CHANNELS 3 Zrotation Yrotation Xrotation
				JOINT RightFoot
				{
					OFFSET -0.438985 -32.635651 -3.012681
					CHANNELS 3 Zrotation Yrotation Xrotation
					JOINT RightToeBase
					{
						OFFSET -0.970169 -13.225354 11.864223
						CHANNELS 3 Zrotation Yrotation Xrotation
						End Site
						{
							OFFSET 0.000000 0.000000 0.000000
						}
					}
				}
			}
		}
	}
	JOINT Spine_virtual
	{
		OFFSET 0.000000 0.000000 0.000000
		CHANNELS 3 Zrotation Yrotation Xrotation
		JOINT Spine
		{
			OFFSET 0.000000 7.722015 1.166203
			CHANNELS 3 Zrotation Yrotation Xrotation
			JOINT Spine1
			{
				OFFSET 0.000000 12.024086 0.248766
				CHANNELS 3 Zrotation Yrotation Xrotation
				JOINT Spine2
				{
					OFFSET -0.000000 11.503036 -0.491240
					CHANNELS 3 Zrotation Yrotation Xrotation
					JOINT Neck_virtual
					{
						OFFSET 0.000000 0.000000 0.000000
						CHANNELS 3 Zrotation Yrotation Xrotation
						JOINT Neck
						{
							OFFSET 0.000000 18.430687 -3.123054
							CHANNELS 3 Zrotation Yrotation Xrotation
							JOINT Head
							{
								OFFSET -0.000000 9.051071 1.034021
								CHANNELS 3 Zrotation Yrotation Xrotation
								End Site
								{
									OFFSET 0.000000 0.000000 0.000000
								}
							}
						}
					}
					JOINT LeftShoulder_virtual
					{
						OFFSET 0.000000 0.000000 0.000000
						CHANNELS 3 Zrotation Yrotation Xrotation
						JOINT LeftShoulder
						{
							OFFSET 6.197824 13.665230 -4.064723
							CHANNELS 3 Zrotation Yrotation Xrotation
							JOINT LeftArm
							{
								OFFSET 7.778132 -0.187073 -1.709282
								CHANNELS 3 Zrotation Yrotation Xrotation
								JOINT LeftForeArm
								{
									OFFSET 21.954697 0.000000 -2.041093
									CHANNELS 3 Zrotation Yrotation Xrotation
									JOINT LeftHand
									{
										OFFSET 22.992908 0.000000 -0.870901
										CHANNELS 3 Zrotation Yrotation Xrotation
										End Site
										{
											OFFSET 0.000000 0.000000 0.000000
										}
									}
								}
							}
						}
					}
					JOINT RightShoulder_virtual
					{
						OFFSET 0.000000 0.000000 0.000000
						CHANNELS 3 Zrotation Yrotation Xrotation
						JOINT RightShoulder
						{
							OFFSET -6.197824 13.665230 -4.064723
							CHANNELS 3 Zrotation Yrotation Xrotation
							JOINT RightArm
							{
								OFFSET -7.778132 -0.187073 -1.709282
								CHANNELS 3 Zrotation Yrotation Xrotation
								JOINT RightForeArm
								{
									OFFSET -21.954697 0.000000 -2.041093
									CHANNELS 3 Zrotation Yrotation Xrotation
									JOINT RightHand
									{
										OFFSET -22.992908 0.000000 -0.870901
										CHANNELS 3 Zrotation Yrotation Xrotation
										End Site
										{
											OFFSET 0.000000 0.000000 0.000000
										}
									}
								}
							}
						}
					}
				}
			}
		}
	}
}
MOTION
Frames: 4
Frame Time: 0.033333
-6.352443 80.881233 36.343155 179.736114 8.101076 -179.830166 -2.480136 -3.133275 13.888760 1.727552 -3.138617 -21.436235 8.510994 0.771689 28.857184 -1.074850 -7.270710 -13.191734 0.000000 0.000000 0.000000 2.167339 -4.691604 12.856721 -4.426506 6.066673 -24.177743 0.341198 4.512588 33.895654 11.340347 4.729041 -13.880511 0.000000 0.000000 0.000000 3.837024 -0.090792 -0.630388 -2.240545 1.000168 -0.491337 0.814661 -1.410899 8.231774 0.132641 0.243805 0.099009 0.452629 -0.363685 9.460692 6.941272 -2.705637 -5.511298 0.000000 0.000000 0.000000 1.679609 0.532835 6.645468 -11.600931 -8.548147 4.191045 -54.667137 -4.279776 1.971840 1.609374 -16.745722 4.312473 0.000000 0.000000 0.000000 -2.132148 1.915937 6.358184 24.895387 -3.097610 6.113123 48.829425 4.704562 5.961991 -1.871069 18.917937 -4.585709 0.000000 0.000000 0.000000 
-6.314970 80.877411 36.352573 179.560332 8.700728 -179.669902 -2.355200 -3.101834 14.151002 1.953624 -3.310986 -21.245601 8.551878 0.185340 29.018479 -1.152690 -7.294649 -12.865383 0.000000 0.000000 0.000000 2.352833 -5.232242 13.003540 -4.085315 5.687527 -24.187397 0.456011 4.052776 34.030670 11.330655 4.704256 -13.966725 0.000000 0.000000 0.000000 3.685150 -0.021231 -0.650510 -2.330638 1.107711 -0.631040 0.768163 -1.332352 8.220299 0.067396 0.327142 0.136635 0.586128 -0.277093 9.496933 6.933082 -2.751733 -5.456149 0.000000 0.000000 0.000000 1.762475 0.649932 6.602128 -11.757400 -8.304191 4.278524 -54.668940 -3.762492 1.919650 1.779121 -16.579186 4.045677 0.000000 0.000000 0.000000 -2.082298 2.145896 6.397340 24.945770 -3.020232 6.107491 48.848656 4.680257 5.987593 -1.808666 19.079117 -4.556966 0.000000 0.000000 0.000000 
-6.306805 80.873566 36.385258 179.564949 8.752520 -179.679314 -2.377975 -3.029875 14.224253 1.995522 -3.305214 -21.324824 8.551407 0.190538 28.997025 -1.176432 -7.285566 -12.900633 0.000000 0.000000 0.000000 2.362634 -5.095757 13.085617 -4.072122 5.694307 -24.393580 0.451285 4.076691 34.170750 11.286846 4.662722 -13.911642 0.000000 0.000000 0.000000 3.660429 0.031810 -0.578713 -2.318644 1.136393 -0.696802 0.752070 -1.203209 8.246741 0.040875 0.442946 0.025586 0.580795 -0.216317 9.589689 6.965738 -2.602771 -5.474736 0.000000 0.000000 0.000000 1.713222 0.652765 6.791887 -11.921427 -8.179148 4.240950 -54.401914 -3.534040 1.579168 1.718601 -16.424124 4.025915 0.000000 0.000000 0.000000 -2.095592 2.117390 6.453240 25.150741 -3.131885 6.124176 48.780620 4.511038 5.988262 -1.905647 19.442919 -4.486430 0.000000 0.000000 0.000000 
-6.333037 80.866310 36.448238 179.580918 8.668243 -179.672784 -2.396709 -2.993718 14.255378 2.027202 -3.308884 -21.416777 8.548539 0.140851 28.992613 -1.203210 -7.297358 -12.938436 0.000000 0.000000 0.000000 2.366021 -5.027678 13.124770 -4.047956 5.676796 -24.575984 0.449305 4.078693 34.340060 11.209299 4.595186 -13.875610 0.000000 0.000000 0.000000 3.657355 0.276618 -0.594832 -2.301412 1.349747 -0.750777 0.718313 -1.324718 8.336189 0.052820 0.290963 0.072998 0.532489 -0.308690 9.606026 6.859726 -2.695758 -5.314439 0.000000 0.000000 0.000000 1.666097 0.563227 6.812641 -12.199639 -8.088155 4.265912 -54.035942 -3.723549 1.298116 1.574027 -16.399496 3.967500 0.000000 0.000000 0.000000 -2.160433 2.058967 6.398060 25.412535 -3.263706 6.034946 48.590830 4.621013 5.827173 -1.860254 19.724114 -4.378596 0.000000 0.000000 0.000000 
